<?xml version="1.0" standalone="no"?>
<!DOCTYPE svg PUBLIC "-//W3C//DTD SVG 20010904//EN"
 "http://www.w3.org/TR/2001/REC-SVG-20010904/DTD/svg10.dtd">
<svg version="1.0" xmlns="http://www.w3.org/2000/svg"
 width="260.000000pt" height="260.000000pt" viewBox="0 0 260.000000 260.000000"
 preserveAspectRatio="xMidYMid meet">
<metadata>
Created by potrace 1.11, written by Peter Selinger 2001-2013
</metadata>
<g transform="translate(0.000000,260.000000) scale(0.100000,-0.100000)"
fill="#000000" stroke="none">
<path d="M1022 2274 c-39 -19 -80 -47 -91 -61 -11 -13 -38 -80 -60 -146 -22
-67 -92 -275 -156 -462 -64 -187 -123 -358 -130 -380 -7 -22 -68 -200 -135
-395 -67 -195 -128 -373 -135 -395 -7 -22 -16 -48 -20 -57 -6 -16 11 -17 249
-17 146 0 258 4 261 9 5 8 104 69 156 95 13 7 30 44 54 121 19 62 35 117 35
122 0 7 55 11 165 11 l164 -1 10 -31 c5 -18 26 -86 46 -152 20 -66 41 -132 46
-147 l11 -27 249 -1 250 0 82 51 c45 29 87 57 94 63 10 9 3 39 -31 136 -23 69
-66 195 -95 280 -29 85 -55 162 -58 170 -3 8 -7 20 -9 25 -1 6 -60 177 -129
380 -215 629 -266 779 -276 813 l-10 32 -233 0 -233 0 -71 -36z m231 -1046 c8
-27 12 -49 8 -49 -29 -7 -91 -4 -91 4 0 6 10 46 22 89 l23 78 11 -37 c7 -21
19 -59 27 -85z"/>
</g>
</svg>
